<svg id="visual" viewBox="0 0 900 600" width="900" height="600" xmlns="http://www.w3.org/2000/svg" xmlns:xlink="http://www.w3.org/1999/xlink" version="1.1"><path d="M0 145L37.5 162C75 179 150 213 225 208C300 203 375 159 450 140C525 121 600 127 675 139C750 151 825 169 862.5 178L900 187L900 0L862.5 0C825 0 750 0 675 0C600 0 525 0 450 0C375 0 300 0 225 0C150 0 75 0 37.5 0L0 0Z" fill="#670f15"></path><path d="M0 253L37.5 281C75 309 150 365 225 373C300 381 375 341 450 321C525 301 600 301 675 317C750 333 825 365 862.5 381L900 397L900 185L862.5 176C825 167 750 149 675 137C600 125 525 119 450 138C375 157 300 201 225 206C150 211 75 177 37.5 160L0 143Z" fill="#8c1414"></path><path d="M0 601L37.5 601C75 601 150 601 225 601C300 601 375 601 450 601C525 601 600 601 675 601C750 601 825 601 862.5 601L900 601L900 395L862.5 379C825 363 750 331 675 315C600 299 525 299 450 319C375 339 300 379 225 371C150 363 75 307 37.5 279L0 251Z" fill="#b0433e"></path></svg>